<?xml version="1.0" encoding="UTF-8"?>
<svg id="Ebene_1" xmlns="http://www.w3.org/2000/svg" width="52.4mm" height="55mm" xmlns:xlink="http://www.w3.org/1999/xlink" version="1.1" viewBox="0 0 148.4 155.9">
  <!-- Generator: Adobe Illustrator 29.2.0, SVG Export Plug-In . SVG Version: 2.1.0 Build 108)  -->
  <defs>
    <style>
      .st0 {
        fill: url(#Unbenannter_Verlauf);
        filter: url(#drop-shadow-1);
      }

      .st0, .st1, .st2, .st3, .st4, .st5 {
        fill-rule: evenodd;
      }

      .st1 {
        fill: url(#Unbenannter_Verlauf_4);
      }

      .st2 {
        fill: url(#Unbenannter_Verlauf_2);
      }

      .st3 {
        fill: url(#Unbenannter_Verlauf_3);
      }

      .st4 {
        fill: #060807;
      }

      .st5 {
        fill: #e32125;
      }
    </style>
    <linearGradient id="Unbenannter_Verlauf" data-name="Unbenannter Verlauf" x1="21.3" y1="86.1" x2="127.2" y2="86.1" gradientTransform="translate(0 157) scale(1 -1)" gradientUnits="userSpaceOnUse">
      <stop offset="0" stop-color="#b1aeb3"/>
      <stop offset="0" stop-color="#fbf8fa"/>
      <stop offset=".1" stop-color="#bcbbbe"/>
      <stop offset=".2" stop-color="#fff"/>
      <stop offset=".3" stop-color="#cdced8"/>
      <stop offset=".6" stop-color="#d2cfcf"/>
      <stop offset=".6" stop-color="#c6c7c6"/>
      <stop offset=".7" stop-color="#a49fa6"/>
      <stop offset=".9" stop-color="#fff"/>
      <stop offset="1" stop-color="#66616d"/>
    </linearGradient>
    <filter id="drop-shadow-1" x="7" y="3.9" width="137" height="137" filterUnits="userSpaceOnUse">
      <feOffset dx="1.3" dy="1.3"/>
      <feGaussianBlur result="blur" stdDeviation="5"/>
      <feFlood flood-color="#000" flood-opacity=".8"/>
      <feComposite in2="blur" operator="in"/>
      <feComposite in="SourceGraphic"/>
    </filter>
    <linearGradient id="Unbenannter_Verlauf_2" data-name="Unbenannter Verlauf 2" x1="24" y1="86.1" x2="124.3" y2="86.1" gradientTransform="translate(0 157) scale(1 -1)" gradientUnits="userSpaceOnUse">
      <stop offset="0" stop-color="#afaeb1"/>
      <stop offset="0" stop-color="#fbf7f9"/>
      <stop offset=".1" stop-color="#bababd"/>
      <stop offset=".2" stop-color="#fff"/>
      <stop offset=".3" stop-color="#ccced8"/>
      <stop offset=".6" stop-color="#d0cdce"/>
      <stop offset=".6" stop-color="#c6c6c6"/>
      <stop offset=".7" stop-color="#a49ea5"/>
      <stop offset=".9" stop-color="#fff"/>
      <stop offset="1" stop-color="#66616e"/>
    </linearGradient>
    <radialGradient id="Unbenannter_Verlauf_3" data-name="Unbenannter Verlauf 3" cx="74.5" cy="85.9" fx="74.5" fy="85.9" r="29.9" gradientTransform="translate(0 157) scale(1 -1)" gradientUnits="userSpaceOnUse">
      <stop offset="0" stop-color="#fff"/>
      <stop offset=".2" stop-color="#fcfcfc"/>
      <stop offset=".4" stop-color="#f2f2f2"/>
      <stop offset=".5" stop-color="#e2e2e2"/>
      <stop offset=".7" stop-color="#cacaca"/>
      <stop offset=".8" stop-color="#acacac"/>
      <stop offset=".9" stop-color="#888"/>
      <stop offset="1" stop-color="#6e6e6e"/>
    </radialGradient>
    <radialGradient id="Unbenannter_Verlauf_4" data-name="Unbenannter Verlauf 4" cx="63.4" cy="75.6" fx="63.4" fy="75.6" r="19.2" gradientTransform="translate(0 157) scale(1 -1)" gradientUnits="userSpaceOnUse">
      <stop offset="0" stop-color="#fff"/>
      <stop offset=".2" stop-color="#fcfcfc"/>
      <stop offset=".4" stop-color="#f2f2f2"/>
      <stop offset=".5" stop-color="#e2e2e2"/>
      <stop offset=".7" stop-color="#cacaca"/>
      <stop offset=".8" stop-color="#acacac"/>
      <stop offset=".9" stop-color="#888"/>
      <stop offset="1" stop-color="#6e6e6e"/>
    </radialGradient>
  </defs>
  <path class="st0" d="M115.5,37.9c18.2,22.8,14.5,56.1-8.4,74.4-22.8,18.2-56.1,14.5-74.4-8.3-18.2-22.8-14.5-56.1,8.3-74.4,23-18.3,56.3-14.5,74.5,8.3h0Z"/>
  <path class="st2" d="M74.2,121c27.7,0,50.1-22.5,50.1-50.1s-22.5-50.1-50.1-50.1c-27.7,0-50.2,22.4-50.2,50.1s22.5,50.1,50.2,50.1h0Z"/>
  <path class="st5" d="M74.2,119.4c26.8,0,48.5-21.7,48.5-48.5s-21.7-48.5-48.5-48.5-48.5,21.7-48.5,48.5,21.7,48.5,48.5,48.5"/>
  <path class="st4" d="M74.2,23.9c25.9,0,47,21,47,47s-21,47-47,47-47-21-47-47c0-25.9,21-47,47-47"/>
  <g>
    <path class="st3" d="M100.1,103.8h-12.3c-1.9,0-3.3-.5-4.6-1.9l-12-12c-3.9-3.8-3.6-9.6,3.6-10,9-.9,14.7-7.8,14.9-15.3.2-9.4-5.9-15.2-14.6-15.9h-26.3c-.5,0-1-.3-1-1v-8.4c0-.6.4-.9,1-.9h26.3c16.4.2,26.2,11.1,26.1,26.3,0,9-5.7,19.2-16,22.2-.9.2-.9.9-.3,1.5l15.2,15.4Z"/>
    <path class="st1" d="M47.9,65.4c0-4.3,2.5-6.2,6.1-6.2h20.3c2.8,0,4.5,2,4.6,5.3,0,3.1-1.8,5.1-4.6,5.2h-14.7c-.8,0-1.2.5-1.2,1.3v32c0,.6-.5.9-.9.9h-8.8c-.5,0-.9-.5-.9-.8v-37.7h.1Z"/>
  </g>
</svg>